ModelForces
version=1
nRows=4
nColumns=206
inDegrees=no

This file contains the forces exerted on a model during a simulation.

A force is a generalized force, meaning that it can be either a force (N) or a torque (Nm).

Units are S.I. units (second, meters, Newtons, ...)
Angles are in degrees.

endheader
time	glut_med1_r	glut_med2_r	glut_med3_r	glut_min1_r	glut_min2_r	glut_min3_r	semimem_r	semiten_r	bifemlh_r	bifemsh_r	sar_r	add_long_r	add_brev_r	add_mag1_r	add_mag2_r	add_mag3_r	tfl_r	pect_r	grac_r	glut_max1_r	glut_max2_r	glut_max3_r	iliacus_r	psoas_r	quad_fem_r	gem_r	peri_r	rect_fem_r	vas_med_r	vas_int_r	vas_lat_r	med_gas_r	lat_gas_r	soleus_r	tib_post_r	flex_dig_r	flex_hal_r	tib_ant_r	per_brev_r	per_long_r	per_tert_r	ext_dig_r	ext_hal_r	glut_med1_l	glut_med2_l	glut_med3_l	glut_min1_l	glut_min2_l	glut_min3_l	semimem_l	semiten_l	bifemlh_l	bifemsh_l	sar_l	add_long_l	add_brev_l	add_mag1_l	add_mag2_l	add_mag3_l	tfl_l	pect_l	grac_l	glut_max1_l	glut_max2_l	glut_max3_l	iliacus_l	psoas_l	quad_fem_l	gem_l	peri_l	rect_fem_l	vas_med_l	vas_int_l	vas_lat_l	med_gas_l	lat_gas_l	soleus_l	tib_post_l	flex_dig_l	flex_hal_l	tib_ant_l	per_brev_l	per_long_l	per_tert_l	ext_dig_l	ext_hal_l	ercspn_r	ercspn_l	intobl_r	intobl_l	extobl_r	extobl_l	femur_lat_meniscii_l.femur_lat_l.force.X	femur_lat_meniscii_l.femur_lat_l.force.Y	femur_lat_meniscii_l.femur_lat_l.force.Z	femur_lat_meniscii_l.femur_lat_l.torque.X	femur_lat_meniscii_l.femur_lat_l.torque.Y	femur_lat_meniscii_l.femur_lat_l.torque.Z	femur_lat_meniscii_l.meniscus_lat_l.force.X	femur_lat_meniscii_l.meniscus_lat_l.force.Y	femur_lat_meniscii_l.meniscus_lat_l.force.Z	femur_lat_meniscii_l.meniscus_lat_l.torque.X	femur_lat_meniscii_l.meniscus_lat_l.torque.Y	femur_lat_meniscii_l.meniscus_lat_l.torque.Z	femur_med_meniscii_l.femur_med_l.force.X	femur_med_meniscii_l.femur_med_l.force.Y	femur_med_meniscii_l.femur_med_l.force.Z	femur_med_meniscii_l.femur_med_l.torque.X	femur_med_meniscii_l.femur_med_l.torque.Y	femur_med_meniscii_l.femur_med_l.torque.Z	femur_med_meniscii_l.meniscus_med_l.force.X	femur_med_meniscii_l.meniscus_med_l.force.Y	femur_med_meniscii_l.meniscus_med_l.force.Z	femur_med_meniscii_l.meniscus_med_l.torque.X	femur_med_meniscii_l.meniscus_med_l.torque.Y	femur_med_meniscii_l.meniscus_med_l.torque.Z	femur_lat_meniscii_r.femur_lat_r.force.X	femur_lat_meniscii_r.femur_lat_r.force.Y	femur_lat_meniscii_r.femur_lat_r.force.Z	femur_lat_meniscii_r.femur_lat_r.torque.X	femur_lat_meniscii_r.femur_lat_r.torque.Y	femur_lat_meniscii_r.femur_lat_r.torque.Z	femur_lat_meniscii_r.meniscus_lat_r.force.X	femur_lat_meniscii_r.meniscus_lat_r.force.Y	femur_lat_meniscii_r.meniscus_lat_r.force.Z	femur_lat_meniscii_r.meniscus_lat_r.torque.X	femur_lat_meniscii_r.meniscus_lat_r.torque.Y	femur_lat_meniscii_r.meniscus_lat_r.torque.Z	femur_med_meniscii_r.femur_med_r.force.X	femur_med_meniscii_r.femur_med_r.force.Y	femur_med_meniscii_r.femur_med_r.force.Z	femur_med_meniscii_r.femur_med_r.torque.X	femur_med_meniscii_r.femur_med_r.torque.Y	femur_med_meniscii_r.femur_med_r.torque.Z	femur_med_meniscii_r.meniscus_med_r.force.X	femur_med_meniscii_r.meniscus_med_r.force.Y	femur_med_meniscii_r.meniscus_med_r.force.Z	femur_med_meniscii_r.meniscus_med_r.torque.X	femur_med_meniscii_r.meniscus_med_r.torque.Y	femur_med_meniscii_r.meniscus_med_r.torque.Z	femur_med_tibia_l.tibia_upper_l.force.X	femur_med_tibia_l.tibia_upper_l.force.Y	femur_med_tibia_l.tibia_upper_l.force.Z	femur_med_tibia_l.tibia_upper_l.torque.X	femur_med_tibia_l.tibia_upper_l.torque.Y	femur_med_tibia_l.tibia_upper_l.torque.Z	femur_med_tibia_l.femur_med_l.force.X	femur_med_tibia_l.femur_med_l.force.Y	femur_med_tibia_l.femur_med_l.force.Z	femur_med_tibia_l.femur_med_l.torque.X	femur_med_tibia_l.femur_med_l.torque.Y	femur_med_tibia_l.femur_med_l.torque.Z	femur_lat_tibia_l.tibia_upper_l.force.X	femur_lat_tibia_l.tibia_upper_l.force.Y	femur_lat_tibia_l.tibia_upper_l.force.Z	femur_lat_tibia_l.tibia_upper_l.torque.X	femur_lat_tibia_l.tibia_upper_l.torque.Y	femur_lat_tibia_l.tibia_upper_l.torque.Z	femur_lat_tibia_l.femur_lat_l.force.X	femur_lat_tibia_l.femur_lat_l.force.Y	femur_lat_tibia_l.femur_lat_l.force.Z	femur_lat_tibia_l.femur_lat_l.torque.X	femur_lat_tibia_l.femur_lat_l.torque.Y	femur_lat_tibia_l.femur_lat_l.torque.Z	femur_med_tibia_r.tibia_upper_r.force.X	femur_med_tibia_r.tibia_upper_r.force.Y	femur_med_tibia_r.tibia_upper_r.force.Z	femur_med_tibia_r.tibia_upper_r.torque.X	femur_med_tibia_r.tibia_upper_r.torque.Y	femur_med_tibia_r.tibia_upper_r.torque.Z	femur_med_tibia_r.femur_med_r.force.X	femur_med_tibia_r.femur_med_r.force.Y	femur_med_tibia_r.femur_med_r.force.Z	femur_med_tibia_r.femur_med_r.torque.X	femur_med_tibia_r.femur_med_r.torque.Y	femur_med_tibia_r.femur_med_r.torque.Z	femur_lat_tibia_r.tibia_upper_r.force.X	femur_lat_tibia_r.tibia_upper_r.force.Y	femur_lat_tibia_r.tibia_upper_r.force.Z	femur_lat_tibia_r.tibia_upper_r.torque.X	femur_lat_tibia_r.tibia_upper_r.torque.Y	femur_lat_tibia_r.tibia_upper_r.torque.Z	femur_lat_tibia_r.femur_lat_r.force.X	femur_lat_tibia_r.femur_lat_r.force.Y	femur_lat_tibia_r.femur_lat_r.force.Z	femur_lat_tibia_r.femur_lat_r.torque.X	femur_lat_tibia_r.femur_lat_r.torque.Y	femur_lat_tibia_r.femur_lat_r.torque.Z	aACL_R	pACL_R	aPCL_R	pPCL_R	aMCL_R	mMCL_R	pMCL_R	aLCL_R	mLCL_R	pLCL_R	aPCL_L	pPCL_L	aMCL_L	aLCL_L	ground_prescribedForce_-60_fx	ground_prescribedForce_-60_fy	ground_prescribedForce_-60_fz
      0.21077928	      9.68032569	      7.12600077	      7.64959476	      3.31186950	      3.88777559	      4.09246242	      1.72107030	      5.25640384	      6.22833608	      8.12283559	      1.95516598	      7.07910844	      5.14754206	      3.66571965	      3.09838468	      5.15370489	      3.86672772	      2.79251469	      1.96398461	      4.59895203	      6.99346367	      5.24188110	     25.30732786	     15.97751053	      4.53907351	      3.28755359	      5.66299923	     57.76488032	     19.99866960	     21.16477710	     28.82075156	      0.00000000	      0.87846117	     12.13176887	     25.55743843	      4.07585203	      4.34199965	     16.44458882	      3.83521314	      9.24846048	      7.27012549	      8.15266747	      2.63153919	      9.68032569	      7.12600077	      7.64959476	      3.31186950	      3.88777559	      4.09246242	     11.77629416	      5.22499102	     10.23173628	      9.03298126	      1.89101433	      7.07910844	      5.14754206	      3.66571965	      3.09838468	      5.15370489	      4.81952511	      2.79251469	      1.94694537	      4.59895203	      6.99346367	      5.24188110	     25.30732786	     15.97751053	      4.53907351	      3.28755359	      5.66299923	     14.14696707	      8.33989584	      9.60886069	     10.32251470	     20.06910492	      9.32267213	     43.05658319	     47.24729556	      4.01514144	      4.09358098	     11.08840949	      5.86729403	     15.83470807	      2.47150522	      7.30130194	      2.29379985	     31.16289878	     31.16289878	     11.43411577	     11.43411577	     28.99397855	     28.99397855	      2.76307435	     50.99597937	     -9.56042239	      5.21997485	     -0.02578839	      1.48581788	     -2.76307435	    -50.99597937	      9.56042239	     -1.74637766	      0.02558040	     -0.48301696	     -3.31599387	     20.97615968	     -3.40468921	      0.94473225	     -0.02138609	     -1.00501789	      3.31599387	    -20.97615968	      3.40468921	      0.28075727	      0.00368718	     -0.29758878	    195.29793859	     60.06664920	     13.06960415	     -6.72817448	      4.81407617	     79.86699084	   -195.29793859	    -60.06664920	    -13.06960415	      1.97339992	     -6.26537481	     -2.14678563	    147.19685655	      6.71421763	    -13.16813101	      5.49692844	     -2.96990299	     59.91614900	   -147.19685655	     -6.71421763	     13.16813101	     -0.31217206	      2.41573846	     -2.24212830	      0.00000000	      0.00000000	      0.00000000	      0.00000000	      0.00000000	      0.00000000	      0.00000000	      0.00000000	      0.00000000	      0.00000000	      0.00000000	      0.00000000	      0.00000000	      0.00000000	      0.00000000	      0.00000000	      0.00000000	      0.00000000	      0.00000000	      0.00000000	      0.00000000	      0.00000000	      0.00000000	      0.00000000	   -131.00133087	    -52.76216864	     15.20131300	     -0.90951347	      1.93422858	     -1.10476490	    131.00133087	     52.76216864	    -15.20131300	      7.15867018	     -2.34578279	     53.53006221	    -17.89300549	    -11.14346003	     -5.51291551	      0.44077586	     -0.67106505	     -0.07399055	     17.89300549	     11.14346003	      5.51291551	     -2.52960109	      0.43691979	      7.32687690	     28.62636479	      3.40626191	    350.91562611	     84.29097868	      4.89999256	      0.69731790	     -0.15038952	      0.00000000	      0.00000000	      0.00000000	      0.00000000	      0.00000000	      0.00000001	      0.00000000	     55.00000000	    -95.26270000	      0.00000000
      0.21294148	      9.62062501	      7.08529920	      7.60536297	      3.29374785	      3.86803739	      4.06728164	      1.71986065	      5.21638303	      6.19039280	      8.08566966	      1.94483379	      7.03819882	      5.11963708	      3.64490089	      3.08036798	      5.12103337	      3.86756698	      2.77712999	      1.95153242	      4.57263195	      6.95333390	      5.21129008	     25.23286089	     15.89282773	      4.51369124	      3.27534803	      5.62107463	     57.70676703	     19.81008615	     20.96928720	     28.55996401	      0.00000000	      0.86969812	     12.02477186	     24.71972377	      4.11913911	      4.30355143	     16.27615206	      3.98714743	      9.42723642	      7.33126035	      7.92074392	      2.55192057	      9.62062501	      7.08529920	      7.60536297	      3.29374785	      3.86803739	      4.06728164	     11.69308332	      5.19303657	     10.16123953	      8.98242258	      1.88071537	      7.03819882	      5.11963708	      3.64490089	      3.08036798	      5.12103337	      4.79927662	      2.77712999	      1.93615490	      4.57263195	      6.95333390	      5.21129008	     25.23286089	     15.89282773	      4.51369124	      3.27534803	      5.62107463	     14.05049883	      8.29095751	      9.55146679	     10.26101548	     19.91416227	      9.25058932	     42.73699363	     47.11308643	      3.98081526	      4.06144291	     11.01491856	      5.82537380	     15.74490771	      2.45843704	      7.24520095	      2.27636960	     30.99199564	     30.99199564	     11.36607134	     11.36607134	     28.93264342	     28.93264342	      2.76307435	     50.99597937	     -9.56042239	      5.21997485	     -0.02578839	      1.48581788	     -2.76307435	    -50.99597937	      9.56042239	     -1.74637766	      0.02558040	     -0.48301696	     -3.31599387	     20.97615968	     -3.40468921	      0.94473225	     -0.02138609	     -1.00501789	      3.31599387	    -20.97615968	      3.40468921	      0.28075727	      0.00368718	     -0.29758878	    193.40294780	     61.11201205	     14.23344057	     -7.23485467	      4.78664002	     79.07755546	   -193.40294780	    -61.11201205	    -14.23344057	      2.03078244	     -6.25315990	     -2.06842441	    147.95299842	      6.95112947	    -12.10185269	      5.06776672	     -2.97502460	     60.22581060	   -147.95299842	     -6.95112947	     12.10185269	     -0.29803211	      2.39235748	     -2.24738697	      0.00000000	      0.00000000	      0.00000000	      0.00000000	      0.00000000	      0.00000000	      0.00000000	      0.00000000	      0.00000000	      0.00000000	      0.00000000	      0.00000000	      0.00000000	      0.00000000	      0.00000000	      0.00000000	      0.00000000	      0.00000000	      0.00000000	      0.00000000	      0.00000000	      0.00000000	      0.00000000	      0.00000000	   -131.59023203	    -53.14392320	     14.55266246	     -0.90044359	      1.92272854	     -1.10091938	    131.59023203	     53.14392320	    -14.55266246	      6.89841150	     -2.35208369	     53.76869574	    -15.41985745	     -9.65971236	     -4.81748161	      0.38277948	     -0.58028878	     -0.06167351	     15.41985745	      9.65971236	      4.81748161	     -2.20872691	      0.37699099	      6.31382967	     29.00296556	      3.25084031	    349.98764774	     83.57157062	      5.00096771	      0.80475668	     -0.01188056	      0.00000000	      0.00000000	      0.00000000	      0.00000000	      0.00000000	      0.00000001	      0.00000000	     55.00000000	    -95.26270000	      0.00000000
      0.21557064	      9.55030671	      7.03734946	      7.55325788	      3.27239423	      3.84478315	      4.03762203	      1.71123759	      5.16788235	      6.14619610	      8.03019241	      1.92719948	      6.99000730	      5.08675422	      3.62037508	      3.05914601	      5.08255147	      3.86739883	      2.75900236	      1.93477321	      4.54162764	      6.90606227	      5.17525686	     25.14515669	     15.79311053	      4.48378581	      3.26097729	      5.57159779	     57.62945745	     19.56489778	     20.71601764	     28.22645518	      0.00000000	      0.85747708	     11.87629296	     23.66555837	      4.17091207	      4.25504087	     16.08809588	      4.17849677	      9.65814081	      7.39236856	      7.63080735	      2.45320902	      9.55030671	      7.03734946	      7.55325788	      3.27239423	      3.84478315	      4.03762203	     11.59497614	      5.15539871	     10.07815094	      8.92285511	      1.86857933	      6.99000730	      5.08675422	      3.62037508	      3.05914601	      5.08255147	      4.77542741	      2.75900236	      1.92344089	      4.54162764	      6.90606227	      5.17525686	     25.14515669	     15.79311053	      4.48378581	      3.26097729	      5.57159779	     13.93681238	      8.23332035	      9.48387478	     10.18859319	     19.73106744	      9.16541276	     42.35985569	     46.95491142	      3.94038995	      4.02361512	     10.92833327	      5.77594518	     15.63895300	      2.44304733	      7.17889643	      2.25577740	     30.79061443	     30.79061443	     11.28592122	     11.28592122	     28.86040897	     28.86040897	      2.76307435	     50.99597937	     -9.56042239	      5.21997485	     -0.02578839	      1.48581788	     -2.76307435	    -50.99597937	      9.56042239	     -1.74637766	      0.02558040	     -0.48301696	     -3.31599387	     20.97615968	     -3.40468921	      0.94473225	     -0.02138609	     -1.00501789	      3.31599387	    -20.97615968	      3.40468921	      0.28075727	      0.00368718	     -0.29758878	    193.58927538	     61.41682973	     13.89001363	     -7.10337344	      4.79459458	     79.15930362	   -193.58927538	    -61.41682973	    -13.89001363	      2.03433682	     -6.25245884	     -2.06445281	    148.72803728	      7.07848566	    -12.51140668	      5.23868787	     -2.99909459	     60.54581457	   -148.72803728	     -7.07848566	     12.51140668	     -0.30790006	      2.42302130	     -2.25751131	      0.00000000	      0.00000000	      0.00000000	      0.00000000	      0.00000000	      0.00000000	      0.00000000	      0.00000000	      0.00000000	      0.00000000	      0.00000000	      0.00000000	      0.00000000	      0.00000000	      0.00000000	      0.00000000	      0.00000000	      0.00000000	      0.00000000	      0.00000000	      0.00000000	      0.00000000	      0.00000000	      0.00000000	   -132.06504360	    -53.22531846	     14.67270101	     -0.90575335	      1.93783037	     -1.10354800	    132.06504360	     53.22531846	    -14.67270101	      6.95099350	     -2.36575986	     53.96281505	    -12.59052925	     -7.88024176	     -3.90801569	      0.31136919	     -0.47254392	     -0.05038724	     12.59052925	      7.88024176	      3.90801569	     -1.79252609	      0.30722771	      5.15560754	     29.80746452	      3.50120615	    348.86930258	     82.46205294	      5.04598873	      0.83502551	      0.00485287	      0.00000000	      0.00000000	      0.00000000	      0.00000000	      0.00000000	      0.00000001	      0.00000000	     55.00000000	    -95.26270000	      0.00000000
      0.21819980	      9.48240300	      6.99103614	      7.50293474	      3.25176412	      3.82232140	      4.00898037	      1.71083937	      5.12407284	      6.10420963	      7.98555057	      1.91577809	      6.94346390	      5.05498281	      3.59668666	      3.03865160	      5.04539123	      3.86791388	      2.74148999	      1.92050328	      4.51168440	      6.86040858	      5.14045908	     25.06047029	     15.69684462	      4.45489778	      3.24710573	      5.52371818	     57.57077973	     19.36081514	     20.50446883	     27.94546339	      0.00000000	      0.84306340	     11.71173019	     22.57336354	      4.22063892	      4.20359743	     15.91048392	      4.37808659	      9.90312167	      7.45515357	      7.33364417	      2.35307572	      9.48240300	      6.99103614	      7.50293474	      3.25176412	      3.82232140	      4.00898037	     11.50013588	      5.11905283	      9.99785901	      8.86531506	      1.85685405	      6.94346390	      5.05498281	      3.59668666	      3.03865160	      5.04539123	      4.75239759	      2.74148999	      1.91115873	      4.51168440	      6.86040858	      5.14045908	     25.06047029	     15.69684462	      4.45489778	      3.24710573	      5.52371818	     13.82696562	      8.17766696	      9.41861312	     10.11867238	     19.55362383	      9.08286855	     41.99491607	     46.80206298	      3.90135685	      3.98711157	     10.84469619	      5.72815807	     15.53643974	      2.42818871	      7.11463411	      2.23582879	     30.59605943	     30.59605943	     11.20851879	     11.20851879	     28.79066370	     28.79066370	      2.76307435	     50.99597937	     -9.56042239	      5.21997485	     -0.02578839	      1.48581788	     -2.76307435	    -50.99597937	      9.56042239	     -1.74637766	      0.02558040	     -0.48301696	     -3.31599387	     20.97615968	     -3.40468921	      0.94473225	     -0.02138609	     -1.00501789	      3.31599387	    -20.97615968	      3.40468921	      0.28075727	      0.00368718	     -0.29758878	    193.11531733	     62.22433422	     16.44574805	     -8.16893740	      4.79292038	     78.95473185	   -193.11531733	    -62.22433422	    -16.44574805	      2.10487653	     -6.30644995	     -2.02047481	    150.39246488	      8.93612922	    -11.58361538	      4.90122017	     -3.02732556	     61.20448447	   -150.39246488	     -8.93612922	     11.58361538	     -0.32192016	      2.42117692	     -2.21809978	      0.00000000	      0.00000000	      0.00000000	      0.00000000	      0.00000000	      0.00000000	      0.00000000	      0.00000000	      0.00000000	      0.00000000	      0.00000000	      0.00000000	      0.00000000	      0.00000000	      0.00000000	      0.00000000	      0.00000000	      0.00000000	      0.00000000	      0.00000000	      0.00000000	      0.00000000	      0.00000000	      0.00000000	   -132.69984014	    -53.90834076	     13.64130525	     -0.89206535	      1.91521324	     -1.08975501	    132.69984014	     53.90834076	    -13.64130525	      6.53812222	     -2.36976356	     54.21713378	     -9.94306215	     -6.24716456	     -3.17249427	      0.24842491	     -0.37578347	     -0.03871927	      9.94306215	      6.24716456	      3.17249427	     -1.45183052	      0.24326212	      4.07132529	     30.13737079	      3.18545240	    347.86987805	     81.63921835	      5.05075201	      0.85283794	      0.07222567	      0.00000000	      0.00000000	      0.00000000	      0.00000000	      0.00000000	      0.00000001	      0.00000000	     55.00000000	    -95.26270000	      0.00000000
